<svg width="24" height="24" viewBox="0 0 24 24" fill="none" xmlns="http://www.w3.org/2000/svg">
<path d="M17.9987 14.0001C17.4079 14.004 16.8252 14.1388 16.2927 14.3947C15.7601 14.6506 15.2909 15.0213 14.9187 15.4801L9.81869 13.1301C10.0585 12.3959 10.0585 11.6044 9.81869 10.8701L14.9187 8.52011C15.5203 9.24608 16.359 9.73619 17.2868 9.90395C18.2146 10.0717 19.1719 9.90634 19.9896 9.43702C20.8074 8.96769 21.4331 8.22459 21.7562 7.33886C22.0794 6.45312 22.0793 5.4817 21.756 4.59602C21.4326 3.71035 20.8068 2.96736 19.989 2.49818C19.1712 2.02901 18.2139 1.86381 17.2861 2.03174C16.3583 2.19967 15.5197 2.68993 14.9182 3.41601C14.3167 4.14208 13.9911 5.05729 13.9987 6.00011C14.0017 6.23835 14.0251 6.47588 14.0687 6.71011L8.78869 9.14011C8.22576 8.58969 7.51293 8.21763 6.73949 8.07054C5.96605 7.92345 5.1664 8.00788 4.44074 8.31325C3.71507 8.61861 3.09565 9.13133 2.66009 9.78718C2.22452 10.443 1.99219 11.2128 1.99219 12.0001C1.99219 12.7874 2.22452 13.5572 2.66009 14.2131C3.09565 14.8689 3.71507 15.3816 4.44074 15.687C5.1664 15.9923 5.96605 16.0768 6.73949 15.9297C7.51293 15.7826 8.22576 15.4105 8.78869 14.8601L14.0687 17.2901C14.0251 17.5243 14.0017 17.7619 13.9987 18.0001C13.9987 18.7912 14.2333 19.5646 14.6728 20.2224C15.1123 20.8802 15.737 21.3929 16.468 21.6956C17.1989 21.9984 18.0031 22.0776 18.779 21.9233C19.555 21.7689 20.2677 21.388 20.8271 20.8285C21.3865 20.2691 21.7675 19.5564 21.9218 18.7805C22.0762 18.0046 21.997 17.2003 21.6942 16.4694C21.3915 15.7385 20.8788 15.1138 20.221 14.6742C19.5632 14.2347 18.7898 14.0001 17.9987 14.0001ZM17.9987 4.00011C18.3942 4.00011 18.7809 4.11741 19.1098 4.33718C19.4387 4.55694 19.6951 4.8693 19.8464 5.23475C19.9978 5.6002 20.0374 6.00233 19.9603 6.3903C19.8831 6.77826 19.6926 7.13462 19.4129 7.41433C19.1332 7.69403 18.7768 7.88451 18.3889 7.96169C18.0009 8.03886 17.5988 7.99925 17.2333 7.84787C16.8679 7.6965 16.5555 7.44015 16.3357 7.11125C16.116 6.78236 15.9987 6.39568 15.9987 6.00011C15.9987 5.46968 16.2094 4.96097 16.5845 4.5859C16.9595 4.21083 17.4683 4.00011 17.9987 4.00011ZM5.99869 14.0001C5.60312 14.0001 5.21644 13.8828 4.88755 13.6631C4.55865 13.4433 4.3023 13.1309 4.15093 12.7655C3.99955 12.4 3.95994 11.9979 4.03711 11.6099C4.11428 11.222 4.30477 10.8656 4.58447 10.5859C4.86418 10.3062 5.22054 10.1157 5.6085 10.0385C5.99647 9.96137 6.3986 10.001 6.76405 10.1524C7.1295 10.3037 7.44186 10.5601 7.66162 10.889C7.88139 11.2179 7.99869 11.6046 7.99869 12.0001C7.99869 12.5305 7.78797 13.0393 7.4129 13.4143C7.03783 13.7894 6.52912 14.0001 5.99869 14.0001ZM17.9987 20.0001C17.6031 20.0001 17.2164 19.8828 16.8875 19.6631C16.5586 19.4433 16.3023 19.1309 16.1509 18.7655C15.9996 18.4 15.9599 17.9979 16.0371 17.6099C16.1143 17.222 16.3048 16.8656 16.5845 16.5859C16.8642 16.3062 17.2205 16.1157 17.6085 16.0385C17.9965 15.9614 18.3986 16.001 18.7641 16.1524C19.1295 16.3037 19.4419 16.5601 19.6616 16.889C19.8814 17.2179 19.9987 17.6046 19.9987 18.0001C19.9987 18.5305 19.788 19.0393 19.4129 19.4143C19.0378 19.7894 18.5291 20.0001 17.9987 20.0001Z" fill="#262B35"/>
</svg>
