<svg width="20" height="20" viewBox="0 0 20 20" fill="none" xmlns="http://www.w3.org/2000/svg">
<path d="M18.266 9.66683C16.5827 5.7585 13.416 3.3335 9.99932 3.3335C6.58266 3.3335 3.41599 5.7585 1.73266 9.66683C1.68677 9.77197 1.66309 9.88545 1.66309 10.0002C1.66309 10.1149 1.68677 10.2284 1.73266 10.3335C3.41599 14.2418 6.58266 16.6668 9.99932 16.6668C13.416 16.6668 16.5827 14.2418 18.266 10.3335C18.3119 10.2284 18.3356 10.1149 18.3356 10.0002C18.3356 9.88545 18.3119 9.77197 18.266 9.66683ZM9.99932 15.0002C7.35766 15.0002 4.85766 13.0918 3.41599 10.0002C4.85766 6.9085 7.35766 5.00016 9.99932 5.00016C12.641 5.00016 15.141 6.9085 16.5827 10.0002C15.141 13.0918 12.641 15.0002 9.99932 15.0002ZM9.99932 6.66683C9.34005 6.66683 8.69559 6.86233 8.14742 7.2286C7.59926 7.59487 7.17202 8.11546 6.91972 8.72455C6.66743 9.33364 6.60142 10.0039 6.73004 10.6505C6.85866 11.2971 7.17613 11.891 7.6423 12.3572C8.10848 12.8234 8.70242 13.1408 9.34902 13.2694C9.99563 13.3981 10.6658 13.3321 11.2749 13.0798C11.884 12.8275 12.4046 12.4002 12.7709 11.8521C13.1372 11.3039 13.3327 10.6594 13.3327 10.0002C13.3327 9.11611 12.9815 8.26826 12.3563 7.64314C11.7312 7.01802 10.8834 6.66683 9.99932 6.66683ZM9.99932 11.6668C9.66969 11.6668 9.34745 11.5691 9.07337 11.3859C8.79929 11.2028 8.58567 10.9425 8.45952 10.638C8.33338 10.3334 8.30037 9.99831 8.36468 9.67501C8.42899 9.35171 8.58772 9.05474 8.82081 8.82165C9.0539 8.58856 9.35087 8.42983 9.67417 8.36552C9.99747 8.30121 10.3326 8.33422 10.6371 8.46036C10.9417 8.58651 11.202 8.80013 11.3851 9.07421C11.5682 9.34829 11.666 9.67053 11.666 10.0002C11.666 10.4422 11.4904 10.8661 11.1778 11.1787C10.8653 11.4912 10.4414 11.6668 9.99932 11.6668Z" fill="#BAC1CE"/>
</svg>
