<svg width="16" height="16" viewBox="0 0 16 16" fill="none" xmlns="http://www.w3.org/2000/svg">
<path d="M1.38606 11.5867C1.45371 11.7496 1.58316 11.879 1.74606 11.9467C1.8262 11.9808 1.91227 11.9989 1.99939 12H5.33272C5.50953 12 5.6791 11.9298 5.80413 11.8047C5.92915 11.6797 5.99939 11.5101 5.99939 11.3333C5.99939 11.1565 5.92915 10.987 5.80413 10.8619C5.6791 10.7369 5.50953 10.6667 5.33272 10.6667H3.60606L7.33272 6.94L9.52606 9.14C9.58803 9.20249 9.66177 9.25208 9.743 9.28593C9.82424 9.31977 9.91138 9.3372 9.99939 9.3372C10.0874 9.3372 10.1745 9.31977 10.2558 9.28593C10.337 9.25208 10.4107 9.20249 10.4727 9.14L14.4727 5.14C14.5352 5.07802 14.5848 5.00429 14.6187 4.92305C14.6525 4.84181 14.6699 4.75467 14.6699 4.66667C14.6699 4.57866 14.6525 4.49152 14.6187 4.41028C14.5848 4.32904 14.5352 4.25531 14.4727 4.19333C14.4107 4.13085 14.337 4.08125 14.2558 4.04741C14.1745 4.01356 14.0874 3.99613 13.9994 3.99613C13.9114 3.99613 13.8242 4.01356 13.743 4.04741C13.6618 4.08125 13.588 4.13085 13.5261 4.19333L9.99939 7.72667L7.80606 5.52667C7.74408 5.46418 7.67035 5.41459 7.58911 5.38074C7.50787 5.34689 7.42073 5.32947 7.33272 5.32947C7.24471 5.32947 7.15758 5.34689 7.07634 5.38074C6.9951 5.41459 6.92136 5.46418 6.85939 5.52667L2.66606 9.72667V8C2.66606 7.82319 2.59582 7.65362 2.47079 7.5286C2.34577 7.40357 2.1762 7.33333 1.99939 7.33333C1.82258 7.33333 1.65301 7.40357 1.52798 7.5286C1.40296 7.65362 1.33272 7.82319 1.33272 8V11.3333C1.33378 11.4205 1.3519 11.5065 1.38606 11.5867Z" fill="#359766"/>
</svg>
