<svg width="28" height="28" viewBox="0 0 28 28" fill="none" xmlns="http://www.w3.org/2000/svg">
<path d="M25.0822 8.28358C24.7322 8.05024 24.2655 8.05024 23.9155 8.28358L19.8322 10.3836C19.7156 8.51691 18.1989 7.00025 16.3322 7.00025H5.83225C3.84893 7.00025 2.33226 8.51691 2.33226 10.5002V17.5002C2.33226 19.4835 3.84893 21.0002 5.83225 21.0002H16.3322C18.1989 21.0002 19.7156 19.4835 19.8322 17.6169L24.0322 19.7169C24.6155 19.9502 25.3155 19.7169 25.5489 19.2502C25.6655 19.0169 25.6655 18.9002 25.6655 18.6669V9.33357C25.6655 8.98357 25.4322 8.51691 25.0822 8.28358Z" fill="white"/>
</svg>
