<svg width="17" height="17" viewBox="0 0 17 17" fill="none" xmlns="http://www.w3.org/2000/svg">
<path d="M13.253 5.1072C13.1871 5.04081 13.1088 4.98812 13.0225 4.95216C12.9362 4.91619 12.8436 4.89768 12.7501 4.89768C12.6566 4.89768 12.564 4.91619 12.4777 4.95216C12.3913 4.98812 12.313 5.04081 12.2471 5.1072L6.97005 10.3914L4.75296 8.16721C4.68459 8.10117 4.60388 8.04924 4.51544 8.01438C4.42701 7.97953 4.33257 7.96244 4.23752 7.96408C4.14248 7.96573 4.04869 7.98608 3.96151 8.02397C3.87433 8.06186 3.79546 8.11655 3.72942 8.18492C3.66337 8.25329 3.61144 8.334 3.57659 8.42244C3.54174 8.51088 3.52464 8.60531 3.52629 8.70036C3.52793 8.7954 3.54828 8.88919 3.58617 8.97638C3.62406 9.06356 3.67876 9.14242 3.74713 9.20846L6.46713 11.9285C6.53298 11.9949 6.61132 12.0476 6.69764 12.0835C6.78396 12.1195 6.87654 12.138 6.97005 12.138C7.06356 12.138 7.15614 12.1195 7.24246 12.0835C7.32878 12.0476 7.40712 11.9949 7.47297 11.9285L13.253 6.14846C13.3249 6.08213 13.3823 6.00162 13.4215 5.91202C13.4608 5.82242 13.481 5.72565 13.481 5.62783C13.481 5.53001 13.4608 5.43325 13.4215 5.34364C13.3823 5.25404 13.3249 5.17353 13.253 5.1072Z" fill="white"/>
</svg>
